<?xml version="1.0" standalone="no"?>
<!DOCTYPE svg PUBLIC "-//W3C//DTD SVG 20010904//EN"
 "http://www.w3.org/TR/2001/REC-SVG-20010904/DTD/svg10.dtd">
<svg version="1.0" xmlns="http://www.w3.org/2000/svg"
 width="1446.000000pt" height="1446.000000pt" viewBox="0 0 1446.000000 1446.000000"
 preserveAspectRatio="xMidYMid meet">
<metadata>
Created by potrace 1.11, written by Peter Selinger 2001-2013
</metadata>
<g transform="translate(0.000000,1446.000000) scale(0.100000,-0.100000)"
fill="#000000" stroke="none">
<path d="M548 9162 l-38 -3 0 -799 0 -800 422 -2 423 -3 0 -352 c0 -193 4
-355 8 -360 5 -4 416 -8 913 -8 l904 0 -2 364 -3 364 -907 -1 -908 -1 -1 27
c-1 37 -1 813 0 832 1 13 116 15 994 15 l992 0 3 363 2 362 -27 0 c-136 3
-2747 4 -2775 2z"/>
<path d="M4160 9160 l-85 -5 0 -1957 c0 -1077 2 -1959 5 -1959 3 -1 193 -2
423 -3 l417 -1 0 800 0 800 548 1 c457 1 567 4 667 18 431 61 772 281 932 601
191 382 143 944 -106 1255 -63 78 -75 91 -141 145 -161 131 -440 255 -630 280
-30 4 -66 9 -80 11 -14 2 -65 6 -115 9 -112 8 -1719 12 -1835 5z m1635 -734
c119 -10 150 -14 214 -32 189 -54 316 -174 340 -324 37 -236 -92 -403 -364
-469 -129 -32 -140 -33 -617 -37 l-458 -3 0 433 c0 323 3 435 12 438 19 7 777
1 873 -6z"/>
<path d="M7815 9160 l-90 -5 0 -797 0 -798 427 0 427 0 0 -356 c0 -196 3 -359
6 -363 10 -9 1806 -7 1812 2 7 11 7 707 0 714 -3 2 -413 5 -911 5 l-906 0 0
436 0 437 995 0 995 0 0 362 0 363 -112 0 c-1001 4 -2574 4 -2643 0z"/>
<path d="M11213 9162 l-33 -3 0 -107 c-3 -1204 1 -3807 6 -3811 3 -3 642 -6
1420 -6 1408 0 1414 0 1414 20 3 124 0 698 -4 702 -2 3 -450 5 -995 4 l-991 0
0 1599 0 1600 -112 1 c-62 0 -239 1 -393 2 -154 1 -295 1 -312 -1z"/>
<path d="M510 6040 c0 -629 3 -799 13 -802 6 -2 644 -4 1417 -4 l1405 1 3 363
2 362 -27 0 c-16 1 -463 1 -995 1 -894 1 -968 2 -969 17 0 10 -1 206 -1 438
l-1 421 -424 0 -423 0 0 -797z"/>
<path d="M7729 6826 c-1 -6 -2 -365 -3 -798 -1 -692 1 -787 14 -790 8 -2 197
-4 420 -3 l405 0 3 801 2 801 -420 0 c-299 0 -420 -3 -421 -11z"/>
</g>
</svg>
